# WaveFront *.obj file (generated by CINEMA 4D)

mtllib player.mtl

v -0.49578875303268 2.99764466285706 -0.49709561467171
v 0.49840250611305 2.99764466285706 -0.49709561467171
v -0.49578875303268 3.9918360710144 -0.49709561467171
v 0.49840250611305 3.9918360710144 -0.49709561467171
v -0.49578875303268 3.9918360710144 0.49709564447403
v -0.49578875303268 2.99764466285706 0.49709564447403
v 0.49840250611305 3.9918360710144 0.49709564447403
v 0.49840250611305 2.99764466285706 0.49709564447403
# 8 vertices

vn 0 0 -1
vn -1 0 0
vn 0 1 0
vn 1 0 0
vn 0 -1 0
vn 0 0 1
# 6 normals

vt 0.5 0.75 0
vt 0.375 0.75 0
vt 0.5 0.875 0
vt 0.375 0.875 0
vt 0.125 0.875 0
vt 0.125 0.75 0
vt 0 0.875 0
vt 0 0.75 0
vt 0.125 1 0
vt 0.25 0.875 0
vt 0.25 1 0
vt 0.25 0.75 0
vt 0.375 1 0
vt 0 1 0
# 14 texture coordinates

o Head
usemtl fox
f 3/3/1 2/2/1 1/1/1
f 2/2/1 3/3/1 4/4/1
f 3/7/2 6/6/2 5/5/2
f 6/6/2 3/7/2 1/8/2
f 7/10/3 3/9/3 5/5/3
f 3/9/3 7/10/3 4/11/3
f 2/2/4 7/10/4 8/12/4
f 7/10/4 2/2/4 4/4/4
f 2/13/5 6/10/5 1/11/5
f 6/10/5 2/13/5 8/4/5
f 7/10/6 6/6/6 8/12/6
f 6/6/6 7/10/6 5/5/6

v 0.49840250611305 1.50635731220245 0.2485478669405
v 0.49840250611305 2.9976441860199 0.2485478669405
v 0.49840250611305 1.50635731220245 -0.2485478669405
v 0.49840250611305 2.9976441860199 -0.2485478669405
v -0.49578875303268 1.50635731220245 -0.2485478669405
v -0.49578875303268 2.9976441860199 -0.2485478669405
v -0.49578875303268 2.9976441860199 0.2485478669405
v -0.49578875303268 1.50635731220245 0.2485478669405
# 8 vertices

# 0 normal

vt 0.4375 0.5 0
vt 0.4375 0.6875 0
vt 0.5 0.5 0
vt 0.5 0.6875 0
vt 0.625 0.5 0
vt 0.625 0.6875 0
vt 0.3125 0.6875 0
vt 0.3125 0.75 0
vt 0.4375 0.75 0
vt 0.3125 0.5 0
vt 0.5625 0.75 0
vt 0.5625 0.6875 0
vt 0.25 0.6875 0
vt 0.25 0.5 0
# 14 texture coordinates

o Bssin
usemtl fox
f 11/17/4 10/16/4 9/15/4
f 10/16/4 11/17/4 12/18/4
f 14/20/1 11/17/1 13/19/1
f 11/17/1 14/20/1 12/18/1
f 10/16/3 14/22/3 15/21/3
f 14/22/3 10/16/3 12/23/3
f 10/16/6 16/24/6 9/15/6
f 16/24/6 10/16/6 15/21/6
f 11/25/5 16/16/5 13/23/5
f 16/16/5 11/25/5 9/26/5
f 14/27/2 16/24/2 15/21/2
f 16/24/2 14/27/2 13/28/2

v -0.86861020326614 2.88256978988647 0.30025437474251
v -0.86861020326614 3.01122760772705 -0.17990325391293
v -0.49578851461411 2.88256978988647 0.30025437474251
v -0.49578851461411 3.01122760772705 -0.17990325391293
v -0.49578851461411 2.94689869880676 0.06017554923892
v -0.86861020326614 1.5707551240921 -0.56587672233582
v -0.49578851461411 1.5707551240921 -0.56587672233582
v -0.86861020326614 1.44209718704224 -0.0857190862298
v -0.49578851461411 1.44209718704224 -0.0857190862298
# 9 vertices

vn 0 0.96592581272125 0.25881904363632
vn 0 0.25881904363632 -0.96592581272125
vn 0 -0.25881904363632 0.96592581272125
vn 0 -0.96592581272125 -0.25881904363632
# 4 normals

vt 0.6875 0.6875 0
vt 0.6875 0.75 0
vt 0.734375 0.6875 0
vt 0.734375 0.75 0
vt 0.734375 0.71875 0
vt 0.84375 0.5 0
vt 0.796875 0.5 0
vt 0.84375 0.6875 0
vt 0.796875 0.6875 0
vt 0.6875 0.5 0
vt 0.734375 0.5 0
vt 0.765625 0.6875 0
vt 0.78125 0.75 0
vt 0.78125 0.6875 0
# 14 texture coordinates

o Arm_d
usemtl fox
f 19/31/7 18/30/7 17/29/7
f 18/30/7 19/31/7 20/32/7
f 20/32/7 19/31/7 21/33/7
f 18/36/8 23/35/8 22/34/8
f 23/35/8 18/36/8 20/37/8
f 18/20/2 24/38/2 17/29/2
f 24/38/2 18/20/2 22/19/2
f 19/31/9 24/38/9 25/39/9
f 24/38/9 19/31/9 17/29/9
f 23/35/4 19/31/4 25/39/4
f 19/31/4 23/35/4 21/40/4
f 21/40/4 23/35/4 20/37/4
f 23/41/10 24/31/10 22/32/10
f 24/31/10 23/41/10 25/42/10

v -0.49578875303268 1.57068741321564 0.24007880687714
v -0.49578875303268 1.44202959537506 -0.24007880687714
v 0.00130700785667 1.57068741321564 0.24007880687714
v 0.00130700785667 1.44202959537506 -0.24007880687714
v -0.49578875303268 0.00155690580141 0.14589466154575
v 0.00130700785667 0.00155690580141 0.14589466154575
v -0.49578875303268 0.13021475076675 0.62605226039886
v 0.00130700785667 0.13021475076675 0.62605226039886
# 8 vertices

vn 0 0.96592581272125 -0.25881904363632
vn 0 -0.25881904363632 -0.96592581272125
vn 0 0.25881904363632 0.96592581272125
vn 0 -0.96592581272125 0.25881904363632
# 4 normals

vt 0.0625 0.6875 0
vt 0.0625 0.75 0
vt 0.125 0.6875 0
vt 0.1875 0.5 0
vt 0.1875 0.6875 0
vt 0.0625 0.5 0
vt 0 0.6875 0
vt 0 0.5 0
vt 0.125 0.5 0
vt 0.1875 0.75 0
# 10 texture coordinates

o Leg_d
usemtl fox
f 28/45/11 27/44/11 26/43/11
f 27/44/11 28/45/11 29/6/11
f 27/27/12 31/46/12 30/28/12
f 31/46/12 27/27/12 29/47/12
f 27/49/2 32/48/2 26/43/2
f 32/48/2 27/49/2 30/50/2
f 28/45/13 32/48/13 33/51/13
f 32/48/13 28/45/13 26/43/13
f 31/46/4 28/45/4 33/51/4
f 28/45/4 31/46/4 29/47/4
f 31/52/14 32/45/14 30/6/14
f 32/45/14 31/52/14 33/47/14

v 0.4984022974968 3.01122760772705 0.17990325391293
v 0.4984022974968 1.5707551240921 0.56587672233582
v 0.4984022974968 2.88256978988647 -0.30025437474251
v 0.4984022974968 1.44209718704224 0.0857190862298
v 0.87122398614883 1.5707551240921 0.56587672233582
v 0.87122398614883 3.01122760772705 0.17990325391293
v 0.87122398614883 2.88256978988647 -0.30025437474251
v 0.87122398614883 1.44209718704224 0.0857190862298
# 8 vertices

# 0 normal

vt 0.5625 0.1875 0
vt 0.5625 0 0
vt 0.5 0.1875 0
vt 0.5 0 0
vt 0.609375 0 0
vt 0.609375 0.1875 0
vt 0.5625 0.25 0
vt 0.609375 0.25 0
vt 0.71875 0 0
vt 0.671875 0 0
vt 0.71875 0.1875 0
vt 0.671875 0.1875 0
vt 0.65625 0.25 0
vt 0.65625 0.1875 0
# 14 texture coordinates

o Arm_g
usemtl fox
f 36/55/2 35/54/2 34/53/2
f 35/54/2 36/55/2 37/56/2
f 39/58/13 35/54/13 38/57/13
f 35/54/13 39/58/13 34/53/13
f 39/58/11 36/59/11 34/53/11
f 36/59/11 39/58/11 40/60/11
f 36/63/12 41/62/12 37/61/12
f 41/62/12 36/63/12 40/64/12
f 41/65/14 35/58/14 37/60/14
f 35/58/14 41/65/14 38/66/14
f 41/62/4 39/58/4 38/57/4
f 39/58/4 41/62/4 40/64/4

v 0.00130688981153 0.13021475076675 -0.62605226039886
v 0.49840262532234 0.13021475076675 -0.62605226039886
v 0.00130688981153 1.57068741321564 -0.24007880687714
v 0.49840262532234 1.57068741321564 -0.24007880687714
v 0.00130688981153 1.44202959537506 0.24007880687714
v 0.00130688981153 0.00155690580141 -0.14589466154575
v 0.49840262532234 1.44202959537506 0.24007880687714
v 0.49840262532234 0.00155690580141 -0.14589466154575
# 8 vertices

# 0 normal

vt 0.4375 0 0
vt 0.4375 0.1875 0
vt 0.3125 0.1875 0
vt 0.3125 0 0
vt 0.25 0.1875 0
vt 0.25 0 0
vt 0.3125 0.25 0
vt 0.375 0.1875 0
vt 0.375 0.25 0
vt 0.375 0 0
vt 0.4375 0.25 0
# 11 texture coordinates

o Leg_g
usemtl fox
f 44/55/8 43/67/8 42/56/8
f 43/67/8 44/55/8 45/68/8
f 44/71/2 47/70/2 46/69/2
f 47/70/2 44/71/2 42/72/2
f 48/74/7 44/73/7 46/69/7
f 44/73/7 48/74/7 45/75/7
f 43/67/4 48/74/4 49/76/4
f 48/74/4 43/67/4 45/68/4
f 43/77/10 47/74/10 42/75/10
f 47/74/10 43/77/10 49/68/10
f 48/74/9 47/70/9 49/76/9
f 47/70/9 48/74/9 46/69/9
