# WaveFront *.obj file (generated by CINEMA 4D)

mtllib player.mtl

v -0.86861020326614 2.95482087135315 0.2485478669405
v -0.86861020326614 2.95482087135315 -0.2485478669405
v -0.49578851461411 2.95482087135315 0.2485478669405
v -0.49578851461411 2.95482087135315 -0.2485478669405
v -0.49578851461411 2.95482087135315 0
v -0.86861020326614 1.46353399753571 -0.2485478669405
v -0.49578851461411 1.46353399753571 -0.2485478669405
v -0.86861020326614 1.46353399753571 0.2485478669405
v -0.49578851461411 1.46353399753571 0.2485478669405
# 9 vertices

vn 0 1 0
vn 0 0 -1
vn -1 0 0
vn 0 0 1
vn 1 0 0
vn 0 -1 0
# 6 normals

vt 0.6875 0.6875 0
vt 0.6875 0.75 0
vt 0.734375 0.6875 0
vt 0.734375 0.75 0
vt 0.734375 0.71875 0
vt 0.84375 0.5 0
vt 0.796875 0.5 0
vt 0.84375 0.6875 0
vt 0.796875 0.6875 0
vt 0.6875 0.5 0
vt 0.625 0.6875 0
vt 0.625 0.5 0
vt 0.734375 0.5 0
vt 0.765625 0.6875 0
vt 0.78125 0.75 0
vt 0.78125 0.6875 0
vt 0 1 0
# 17 texture coordinates

o Polygon
usemtl other
f 3/3/1 2/2/1 1/1/1
f 2/2/1 3/3/1 4/4/1
f 4/4/1 3/3/1 5/5/1
f 2/8/2 7/7/2 6/6/2
f 7/7/2 2/8/2 4/9/2
f 2/11/3 8/10/3 1/1/3
f 8/10/3 2/11/3 6/12/3
f 3/3/4 8/10/4 9/13/4
f 8/10/4 3/3/4 1/1/4
f 7/7/5 3/3/5 9/13/5
f 3/3/5 7/7/5 5/14/5
f 5/14/5 7/7/5 4/9/5
f 7/15/6 8/3/6 6/4/6
f 8/3/6 7/15/6 9/16/6

v -0.49578875303268 2.99764466285706 -0.49709561467171
v 0.49840250611305 2.99764466285706 -0.49709561467171
v -0.49578875303268 3.9918360710144 -0.49709561467171
v 0.49840250611305 3.9918360710144 -0.49709561467171
v -0.49578875303268 3.9918360710144 0.49709564447403
v -0.49578875303268 2.99764466285706 0.49709564447403
v 0.49840250611305 3.9918360710144 0.49709564447403
v 0.49840250611305 2.99764466285706 0.49709564447403
# 8 vertices

# 0 normal

vt 0.5 0.75 0
vt 0.375 0.75 0
vt 0.5 0.875 0
vt 0.375 0.875 0
vt 0.125 0.875 0
vt 0.125 0.75 0
vt 0 0.875 0
vt 0 0.75 0
vt 0.125 1 0
vt 0.25 0.875 0
vt 0.25 1 0
vt 0.25 0.75 0
vt 0.375 1 0
# 13 texture coordinates

o Polygon_1
usemtl other
f 12/20/2 11/19/2 10/18/2
f 11/19/2 12/20/2 13/21/2
f 12/24/3 15/23/3 14/22/3
f 15/23/3 12/24/3 10/25/3
f 16/27/1 12/26/1 14/22/1
f 12/26/1 16/27/1 13/28/1
f 11/19/5 16/27/5 17/29/5
f 16/27/5 11/19/5 13/21/5
f 11/30/6 15/27/6 10/28/6
f 15/27/6 11/30/6 17/21/6
f 16/27/4 15/23/4 17/29/4
f 15/23/4 16/27/4 14/22/4

v -0.49578875303268 1.50635850429535 0.2485478669405
v -0.49578875303268 1.50635850429535 -0.2485478669405
v 0.00130700785667 1.50635850429535 0.2485478669405
v 0.00130700785667 1.50635850429535 -0.2485478669405
v -0.49578875303268 0.01507145632058 -0.2485478669405
v 0.00130700785667 0.01507145632058 -0.2485478669405
v -0.49578875303268 0.01507145632058 0.2485478669405
v 0.00130700785667 0.01507145632058 0.2485478669405
# 8 vertices

# 0 normal

vt 0.0625 0.6875 0
vt 0.0625 0.75 0
vt 0.125 0.6875 0
vt 0.25 0.5 0
vt 0.1875 0.5 0
vt 0.25 0.6875 0
vt 0.1875 0.6875 0
vt 0.0625 0.5 0
vt 0 0.6875 0
vt 0 0.5 0
vt 0.125 0.5 0
vt 0.1875 0.75 0
# 12 texture coordinates

o Polygon_2
usemtl other
f 20/33/1 19/32/1 18/31/1
f 19/32/1 20/33/1 21/23/1
f 19/36/2 23/35/2 22/34/2
f 23/35/2 19/36/2 21/37/2
f 19/39/3 24/38/3 18/31/3
f 24/38/3 19/39/3 22/40/3
f 20/33/4 24/38/4 25/41/4
f 24/38/4 20/33/4 18/31/4
f 23/35/5 20/33/5 25/41/5
f 20/33/5 23/35/5 21/37/5
f 23/42/6 24/33/6 22/23/6
f 24/33/6 23/42/6 25/37/6

v 0.4984022974968 2.95482087135315 0.2485478669405
v 0.4984022974968 1.46353399753571 0.2485478669405
v 0.4984022974968 2.95482087135315 -0.2485478669405
v 0.4984022974968 1.46353399753571 -0.2485478669405
v 0.87122398614883 1.46353399753571 0.2485478669405
v 0.87122398614883 2.95482087135315 0.2485478669405
v 0.87122398614883 2.95482087135315 -0.2485478669405
v 0.87122398614883 1.46353399753571 -0.2485478669405
# 8 vertices

# 0 normal

vt 0.5625 0.1875 0
vt 0.5625 0 0
vt 0.5 0.1875 0
vt 0.5 0 0
vt 0.609375 0 0
vt 0.609375 0.1875 0
vt 0.5625 0.25 0
vt 0.609375 0.25 0
vt 0.71875 0 0
vt 0.671875 0 0
vt 0.71875 0.1875 0
vt 0.671875 0.1875 0
vt 0.65625 0.25 0
vt 0.65625 0.1875 0
# 14 texture coordinates

o Polygon_3
usemtl other
f 28/45/3 27/44/3 26/43/3
f 27/44/3 28/45/3 29/46/3
f 31/48/4 27/44/4 30/47/4
f 27/44/4 31/48/4 26/43/4
f 31/48/1 28/49/1 26/43/1
f 28/49/1 31/48/1 32/50/1
f 28/53/2 33/52/2 29/51/2
f 33/52/2 28/53/2 32/54/2
f 33/55/6 27/48/6 29/50/6
f 27/48/6 33/55/6 30/56/6
f 33/52/5 31/48/5 30/47/5
f 31/48/5 33/52/5 32/54/5

v 0.00130688981153 0.01507145632058 -0.2485478669405
v 0.49840262532234 0.01507145632058 -0.2485478669405
v 0.00130688981153 1.50635850429535 -0.2485478669405
v 0.49840262532234 1.50635850429535 -0.2485478669405
v 0.00130688981153 1.50635850429535 0.2485478669405
v 0.00130688981153 0.01507145632058 0.2485478669405
v 0.49840262532234 1.50635850429535 0.2485478669405
v 0.49840262532234 0.01507145632058 0.2485478669405
# 8 vertices

# 0 normal

vt 0.4375 0 0
vt 0.4375 0.1875 0
vt 0.3125 0.1875 0
vt 0.3125 0 0
vt 0.25 0.1875 0
vt 0.25 0 0
vt 0.3125 0.25 0
vt 0.375 0.1875 0
vt 0.375 0.25 0
vt 0.375 0 0
vt 0.4375 0.25 0
# 11 texture coordinates

o Polygon_4
usemtl other
f 36/45/2 35/57/2 34/46/2
f 35/57/2 36/45/2 37/58/2
f 36/61/3 39/60/3 38/59/3
f 39/60/3 36/61/3 34/62/3
f 40/64/1 36/63/1 38/59/1
f 36/63/1 40/64/1 37/65/1
f 35/57/5 40/64/5 41/66/5
f 40/64/5 35/57/5 37/58/5
f 35/67/6 39/64/6 34/65/6
f 39/64/6 35/67/6 41/58/6
f 40/64/4 39/60/4 41/66/4
f 39/60/4 40/64/4 38/59/4

v 0.49840250611305 1.50635731220245 0.2485478669405
v 0.49840250611305 2.9976441860199 0.2485478669405
v 0.49840250611305 1.50635731220245 -0.2485478669405
v 0.49840250611305 2.9976441860199 -0.2485478669405
v -0.49578875303268 1.50635731220245 -0.2485478669405
v -0.49578875303268 2.9976441860199 -0.2485478669405
v -0.49578875303268 2.9976441860199 0.2485478669405
v -0.49578875303268 1.50635731220245 0.2485478669405
# 8 vertices

# 0 normal

vt 0.4375 0.5 0
vt 0.4375 0.6875 0
vt 0.5 0.5 0
vt 0.5 0.6875 0
vt 0.3125 0.6875 0
vt 0.3125 0.75 0
vt 0.4375 0.75 0
vt 0.3125 0.5 0
vt 0.5625 0.75 0
vt 0.5625 0.6875 0
# 10 texture coordinates

o Polygon_5
usemtl other
f 44/70/5 43/69/5 42/68/5
f 43/69/5 44/70/5 45/71/5
f 47/11/2 44/70/2 46/12/2
f 44/70/2 47/11/2 45/71/2
f 43/69/1 47/73/1 48/72/1
f 47/73/1 43/69/1 45/74/1
f 43/69/4 49/75/4 42/68/4
f 49/75/4 43/69/4 48/72/4
f 44/76/6 49/69/6 46/74/6
f 49/69/6 44/76/6 42/77/6
f 47/36/3 49/75/3 48/72/3
f 49/75/3 47/36/3 46/34/3
