# WaveFront *.obj file (generated by CINEMA 4D)

mtllib tnt.mtl

v 0.78921949863434 -0.00198220647871 0.77248084545136
v 0.78921949863434 -0.00198220647871 -0.80232232809067
v 0.78921949863434 1.57282090187073 0.77248084545136
v 0.78921949863434 1.57282090187073 -0.80232232809067
v -0.78558367490768 1.57282090187073 -0.80232232809067
v -0.78558367490768 1.57282090187073 0.77248084545136
v -0.78558367490768 -0.00198220647871 0.77248084545136
v -0.78558367490768 -0.00198220647871 -0.80232232809067
# 8 vertices

vn 1 0 0
vn 0 0 0
vn 1 0 0
vn 0 1 0
vn 0 1 0
vn 0 -1 0
vn 0 -1 0
vn 0 -1 0
vn 0 0 1
vn 0 0 -1
vn -1 0 0
vn -1 0 0
vn -1 0 0
# 13 normals

vt 0.00049954652786 0.99950045347214
vt 0.99950021505356 0.00049960613251
vt 0.00049954652786 0.00049960613251
vt 0 1
vt 0.99950021505356 0.99950045347214
vt 0.00049978494644 0.99950045347214
vt 0.99950045347214 0.99950021505356
vt 0.00049954652786 0.00049984455109
vt 0.00049954652786 0.99950021505356
vt 0.99950045347214 0.00049984455109
vt 0.00049978494644 0.00049960613251
# 11 texture coordinates

o TNT1
usemtl Mat
f 1/3/1 2/2/1 3/1/1
f 2/2/1 4/5/3 3/1/1
f 7/3/9 1/2/9 6/1/9
f 1/2/9 3/5/9 6/1/9
f 2/3/10 8/2/10 4/1/10
f 8/2/10 5/5/10 4/1/10
f 8/3/12 7/2/11 5/1/11
f 7/2/11 6/5/13 5/1/11

o TNT2
usemtl Mat_1
f 4/7/5 5/6/4 3/2/4
f 5/6/4 6/8/4 3/2/4
f 1/11/7 7/10/6 2/9/6
f 7/10/6 8/5/8 2/9/6
